<?xml version="1.0" encoding="utf-8"?>
<!-- Generator: Adobe Illustrator 22.1.0, SVG Export Plug-In . SVG Version: 6.00 Build 0)  -->
<svg version="1.1" id="Layer_1" xmlns="http://www.w3.org/2000/svg" xmlns:xlink="http://www.w3.org/1999/xlink" x="0px" y="0px"
	 viewBox="0 0 280.3 242" style="enable-background:new 0 0 280.3 242;" xml:space="preserve">
<path d="M138.5,0.1c-69.3,0-122.4,52.7-122.4,122c0,55.5,34.9,102.9,84.8,119.6c6.4,1.1,8.7-2.8,8.7-6.1c0-3.1-0.2-20.2-0.2-30.7
	c0,0-35,7.5-42.3-14.9c0,0-5.7-14.6-13.9-18.3c0,0-11.5-7.9,0.8-7.7c0,0,12.5,1,19.3,12.9c10.9,19.3,29.3,13.8,36.5,10.4
	c1.2-8,4.4-13.6,8-16.9c-27.9-3.1-56.2-7.1-56.2-55.3c0-13.8,3.8-20.7,11.8-29.4c-1.3-3.2-5.5-16.7,1.3-33.9
	c10.4-3.2,34.5,13.5,34.5,13.5c10-2.8,20.8-4.2,31.4-4.2c10.7,0,21.4,1.4,31.4,4.2c0,0,24.1-16.8,34.5-13.5
	c6.9,17.3,2.6,30.7,1.3,33.9c8,8.8,12.9,15.8,12.9,29.4c0,48.3-29.4,52.1-57.4,55.3c4.6,3.9,8.5,11.4,8.5,23.2
	c0,16.9-0.1,37.7-0.1,41.8c0,3.2,2.3,7.2,8.6,6.1c50-16.6,83.9-64.1,83.9-119.5C264.1,52.7,207.9,0.1,138.5,0.1z"/>
</svg>
