<?xml version="1.0" encoding="utf-8"?>
<!-- Generator: Adobe Illustrator 22.1.0, SVG Export Plug-In . SVG Version: 6.00 Build 0)  -->
<svg version="1.1" id="Layer_1" xmlns="http://www.w3.org/2000/svg" xmlns:xlink="http://www.w3.org/1999/xlink" x="0px" y="0px"
	 viewBox="0 0 280.3 242" style="enable-background:new 0 0 280.3 242;" xml:space="preserve">
<style type="text/css">
	.st0{fill:#231F20;}
</style>
<path class="st0" d="M32.5,18.7c-3.4,0-6.4,0.6-9.4,1.6l31.4,20h171.4l31.4-20c-3-0.9-6.1-1.6-9.4-1.6
	C247.9,18.7,32.5,18.7,32.5,18.7z M12.2,26.2c-7.3,5.9-12,14.9-12,24.9V191c0,17.8,14.5,32.3,32.3,32.3h215.3
	c17.8,0,32.3-14.5,32.3-32.3V51.1c0-10.1-4.7-18.9-12-24.9l-128,81.4L12.2,26.2z M32.5,77l107.6,68.6l107.6-68.5v124.7H32.5V77z"/>
</svg>
