<?xml version="1.0" encoding="utf-8"?>
<!-- Generator: Adobe Illustrator 22.1.0, SVG Export Plug-In . SVG Version: 6.00 Build 0)  -->
<svg version="1.1" id="Layer_1" xmlns="http://www.w3.org/2000/svg" xmlns:xlink="http://www.w3.org/1999/xlink" x="0px" y="0px"
	 viewBox="0 0 280.3 242" style="enable-background:new 0 0 280.3 242;" xml:space="preserve">
<style type="text/css">
	.st0{fill:#FFFFFF;}
</style>
<g>
	<g id="post-linkedin">
		<path class="st0" d="M236.9,0H43.3C30,0,19.1,10.9,19.1,24.2v193.6c0,13.3,10.9,24.2,24.2,24.2h193.6c13.3,0,24.2-10.9,24.2-24.2
			V24.2C261.1,10.9,250.3,0,236.9,0z M91.7,205.7H55.4V96.8h36.3V205.7z M73.6,76.2c-12.1,0-21.8-9.7-21.8-21.8s9.7-21.8,21.8-21.8
			s21.8,9.7,21.8,21.8S85.7,76.2,73.6,76.2z M224.8,205.7h-36.3v-64.1c0-9.7-8.5-18.2-18.1-18.2s-18.1,8.5-18.1,18.2v64.1H116V96.8
			h36.3v14.5c6-9.7,19.4-16.9,30.2-16.9c23,0,42.3,19.4,42.3,42.4L224.8,205.7L224.8,205.7z"/>
	</g>
</g>
</svg>
