<?xml version="1.0" encoding="utf-8"?>
<!-- Generator: Adobe Illustrator 22.1.0, SVG Export Plug-In . SVG Version: 6.00 Build 0)  -->
<svg version="1.1" id="Capa_1" xmlns="http://www.w3.org/2000/svg" xmlns:xlink="http://www.w3.org/1999/xlink" x="0px" y="0px"
	 viewBox="0 0 510 510" style="enable-background:new 0 0 510 510;" xml:space="preserve">
<style type="text/css">
	.st0{fill:#FFFFFF;}
</style>
<path class="st0" d="M62.3,71.9c-6,0-11.5,1.1-16.8,2.8l56.2,35.8h306.8l56.2-35.8c-5.3-1.6-10.9-2.8-16.8-2.8
	C447.9,71.9,62.3,71.9,62.3,71.9z M25.9,85.2c-13,10.6-21.4,26.6-21.4,44.6v250.5c0,31.8,26,57.8,57.8,57.8h385.4
	c31.8,0,57.8-26,57.8-57.8V129.8c0-18-8.5-33.9-21.4-44.6L255,230.9L25.9,85.2z M62.3,176.3L255,299.1l192.7-122.7v223.2H62.3V176.3
	z"/>
</svg>
