<svg xmlns="http://www.w3.org/2000/svg" viewBox="0 0 303.65 202.62"><defs><style>.cls-1{fill:#231f20;}.cls-2{fill:#4eb97f;}.cls-3{fill:#ffcc42;}</style></defs><title>site_icon</title><g id="icon"><path class="cls-1" d="M56.94,303.72V101.1h53.58q35.49,0,56.57,22.54t21.5,61.79v32.84q0,39.95-21.08,62.69t-58.1,22.76ZM97.86,135.19V269.76H110.1q20.46,0,28.81-10.78t8.77-37.23V186.54q0-28.38-7.94-39.59t-27-11.76Z" transform="translate(-56.94 -101.1)"/><path class="cls-1" d="M275,225.51l-16.14,20.32v57.89H218V101.1h40.92v88.37l12.94-21.85,37.71-66.52h50.1l-58,89.06,59,113.56H312Z" transform="translate(-56.94 -101.1)"/></g><g id="green"><rect class="cls-2" y="168.66" width="40.91" height="33.96"/></g><g id="orange"><rect class="cls-3" x="161.01" y="31.27" width="40.91" height="34"/></g></svg>